<?xml version="1.0" encoding="UTF-8" standalone="no"?>
<!DOCTYPE svg PUBLIC "-//W3C//DTD SVG 1.1//EN" "http://www.w3.org/Graphics/SVG/1.1/DTD/svg11.dtd">
<svg version="1.1" xmlns="http://www.w3.org/2000/svg" xmlns:xlink="http://www.w3.org/1999/xlink" preserveAspectRatio="xMidYMid meet" viewBox="0 0 250 120" width="250" height="120"><defs><path d="M1.56 38.84C1.56 58.15 17.45 73.8 37.04 73.8C56.64 73.8 72.52 58.15 72.52 38.84C72.52 19.53 56.64 3.88 37.04 3.88C17.45 3.88 1.56 19.53 1.56 38.84Z" id="c4KbZUTXn4"></path><path d="M155.53 38.84C155.53 58.15 139.64 73.8 120.05 73.8C100.45 73.8 84.56 58.15 84.56 38.84C84.56 19.53 100.45 3.88 120.05 3.88C139.64 3.88 155.53 19.53 155.53 38.84Z" id="afsOhx5Zq"></path><path d="M238.42 38.84C238.42 58.15 222.54 73.8 202.94 73.8C183.35 73.8 167.46 58.15 167.46 38.84C167.46 19.53 183.35 3.88 202.94 3.88C222.54 3.88 238.42 19.53 238.42 38.84Z" id="bL4XiNkTJ"></path><path d="M113.76 77.99C113.76 97.3 97.87 112.95 78.28 112.95C58.68 112.95 42.79 97.3 42.79 77.99C42.79 58.69 58.68 43.03 78.28 43.03C97.87 43.03 113.76 58.69 113.76 77.99Z" id="b2pbGgIkmS"></path><path d="M196.76 77.99C196.76 97.3 180.88 112.95 161.28 112.95C141.68 112.95 125.8 97.3 125.8 77.99C125.8 58.69 141.68 43.03 161.28 43.03C180.88 43.03 196.76 58.69 196.76 77.99Z" id="af4U1u1oD"></path></defs><g><g><g><g><filter id="shadow16355153" x="-27.44" y="-25.12" width="131.96" height="130.92" filterUnits="userSpaceOnUse" primitiveUnits="userSpaceOnUse"><feFlood></feFlood><feComposite in2="SourceAlpha" operator="in"></feComposite><feGaussianBlur stdDeviation="3.16"></feGaussianBlur><feOffset dx="3" dy="3" result="afterOffset"></feOffset><feFlood flood-color="#000000" flood-opacity="0.5"></feFlood><feComposite in2="afterOffset" operator="in"></feComposite><feMorphology operator="dilate" radius="1"></feMorphology><feComposite in2="SourceAlpha" operator="out"></feComposite></filter><path d="M1.56 38.84C1.56 58.15 17.45 73.8 37.04 73.8C56.64 73.8 72.52 58.15 72.52 38.84C72.52 19.53 56.64 3.88 37.04 3.88C17.45 3.88 1.56 19.53 1.56 38.84Z" id="af42UYTah" fill="white" fill-opacity="1" filter="url(#shadow16355153)"></path></g><use xlink:href="#c4KbZUTXn4" opacity="1" fill="#239abf" fill-opacity="0.8"></use><g><use xlink:href="#c4KbZUTXn4" opacity="1" fill-opacity="0" stroke="#ffffff" stroke-width="4" stroke-opacity="1"></use></g></g><g><g><filter id="shadow1012030" x="55.56" y="-25.12" width="131.96" height="130.92" filterUnits="userSpaceOnUse" primitiveUnits="userSpaceOnUse"><feFlood></feFlood><feComposite in2="SourceAlpha" operator="in"></feComposite><feGaussianBlur stdDeviation="3.16"></feGaussianBlur><feOffset dx="3" dy="3" result="afterOffset"></feOffset><feFlood flood-color="#000000" flood-opacity="0.5"></feFlood><feComposite in2="afterOffset" operator="in"></feComposite><feMorphology operator="dilate" radius="1"></feMorphology><feComposite in2="SourceAlpha" operator="out"></feComposite></filter><path d="M155.53 38.84C155.53 58.15 139.64 73.8 120.05 73.8C100.45 73.8 84.56 58.15 84.56 38.84C84.56 19.53 100.45 3.88 120.05 3.88C139.64 3.88 155.53 19.53 155.53 38.84Z" id="c9cwKsqNCB" fill="white" fill-opacity="1" filter="url(#shadow1012030)"></path></g><use xlink:href="#afsOhx5Zq" opacity="1" fill="#33cc3f" fill-opacity="0.8"></use><g><use xlink:href="#afsOhx5Zq" opacity="1" fill-opacity="0" stroke="#ffffff" stroke-width="4" stroke-opacity="1"></use></g></g><g><g><filter id="shadow408304" x="138.46" y="-25.12" width="131.96" height="130.92" filterUnits="userSpaceOnUse" primitiveUnits="userSpaceOnUse"><feFlood></feFlood><feComposite in2="SourceAlpha" operator="in"></feComposite><feGaussianBlur stdDeviation="3.16"></feGaussianBlur><feOffset dx="3" dy="3" result="afterOffset"></feOffset><feFlood flood-color="#000000" flood-opacity="0.5"></feFlood><feComposite in2="afterOffset" operator="in"></feComposite><feMorphology operator="dilate" radius="1"></feMorphology><feComposite in2="SourceAlpha" operator="out"></feComposite></filter><path d="M238.42 38.84C238.42 58.15 222.54 73.8 202.94 73.8C183.35 73.8 167.46 58.15 167.46 38.84C167.46 19.53 183.35 3.88 202.94 3.88C222.54 3.88 238.42 19.53 238.42 38.84Z" id="eqT5IFQN1" fill="white" fill-opacity="1" filter="url(#shadow408304)"></path></g><use xlink:href="#bL4XiNkTJ" opacity="1" fill="#a133cc" fill-opacity="0.8"></use><g><use xlink:href="#bL4XiNkTJ" opacity="1" fill-opacity="0" stroke="#ffffff" stroke-width="4" stroke-opacity="1"></use></g></g><g><g><filter id="shadow12091095" x="13.79" y="14.03" width="131.96" height="130.92" filterUnits="userSpaceOnUse" primitiveUnits="userSpaceOnUse"><feFlood></feFlood><feComposite in2="SourceAlpha" operator="in"></feComposite><feGaussianBlur stdDeviation="3.16"></feGaussianBlur><feOffset dx="3" dy="3" result="afterOffset"></feOffset><feFlood flood-color="#000000" flood-opacity="0.5"></feFlood><feComposite in2="afterOffset" operator="in"></feComposite><feMorphology operator="dilate" radius="1"></feMorphology><feComposite in2="SourceAlpha" operator="out"></feComposite></filter><path d="M113.76 77.99C113.76 97.3 97.87 112.95 78.28 112.95C58.68 112.95 42.79 97.3 42.79 77.99C42.79 58.69 58.68 43.03 78.28 43.03C97.87 43.03 113.76 58.69 113.76 77.99Z" id="e6yOdvDmB" fill="white" fill-opacity="1" filter="url(#shadow12091095)"></path></g><use xlink:href="#b2pbGgIkmS" opacity="1" fill="#ccb933" fill-opacity="0.8"></use><g><use xlink:href="#b2pbGgIkmS" opacity="1" fill-opacity="0" stroke="#ffffff" stroke-width="4" stroke-opacity="1"></use></g></g><g><g><filter id="shadow5630691" x="96.8" y="14.03" width="131.96" height="130.92" filterUnits="userSpaceOnUse" primitiveUnits="userSpaceOnUse"><feFlood></feFlood><feComposite in2="SourceAlpha" operator="in"></feComposite><feGaussianBlur stdDeviation="3.16"></feGaussianBlur><feOffset dx="3" dy="3" result="afterOffset"></feOffset><feFlood flood-color="#000000" flood-opacity="0.5"></feFlood><feComposite in2="afterOffset" operator="in"></feComposite><feMorphology operator="dilate" radius="1"></feMorphology><feComposite in2="SourceAlpha" operator="out"></feComposite></filter><path d="M196.76 77.99C196.76 97.3 180.88 112.95 161.28 112.95C141.68 112.95 125.8 97.3 125.8 77.99C125.8 58.69 141.68 43.03 161.28 43.03C180.88 43.03 196.76 58.69 196.76 77.99Z" id="d3DE0UG0iA" fill="white" fill-opacity="1" filter="url(#shadow5630691)"></path></g><use xlink:href="#af4U1u1oD" opacity="1" fill="#cc336f" fill-opacity="0.8"></use><g><use xlink:href="#af4U1u1oD" opacity="1" fill-opacity="0" stroke="#ffffff" stroke-width="4" stroke-opacity="1"></use></g></g></g></g></svg>