<svg xmlns="http://www.w3.org/2000/svg" xmlns:xlink="http://www.w3.org/1999/xlink" width="221.553" height="228.316" viewBox="0 0 221.553 228.316"><defs><linearGradient id="a" x1="0.193" y1="0.11" x2="0.683" y2="0.963" gradientUnits="objectBoundingBox"><stop offset="0" stop-color="#51cbf3"/><stop offset="0.51" stop-color="#bbd5ff"/><stop offset="1" stop-color="#149bc7"/></linearGradient><filter id="b" x="0" y="37.514" width="190.802" height="190.802" filterUnits="userSpaceOnUse"><feOffset dx="3" dy="6" input="SourceAlpha"/><feGaussianBlur stdDeviation="5" result="c"/><feFlood flood-opacity="0.161"/><feComposite operator="in" in2="c"/><feComposite in="SourceGraphic"/></filter><linearGradient id="d" x1="0.218" y1="0.094" x2="0.682" y2="0.819" gradientUnits="objectBoundingBox"><stop offset="0" stop-color="#2665df"/><stop offset="0.506" stop-color="#69a6ff"/><stop offset="1" stop-color="#133370"/></linearGradient><linearGradient id="e" x1="0.105" y1="0.792" x2="0.909" y2="0.216" gradientUnits="objectBoundingBox"><stop offset="0" stop-color="#003088"/><stop offset="0.519" stop-color="#82a7e1"/><stop offset="1" stop-color="#074ae9"/></linearGradient><filter id="f" x="40.712" y="78.626" width="103.077" height="103.077" filterUnits="userSpaceOnUse"><feOffset dy="3" input="SourceAlpha"/><feGaussianBlur stdDeviation="3" result="g"/><feFlood flood-opacity="0.161"/><feComposite operator="in" in2="g"/><feComposite in="SourceGraphic"/></filter><radialGradient id="h" cx="0.361" cy="0.428" r="0.258" gradientTransform="matrix(0.719, 0.695, -0.719, 0.743, 0.5, -0.219)" gradientUnits="objectBoundingBox"><stop offset="0" stop-color="#4882d7"/><stop offset="1" stop-color="#084092"/></radialGradient><filter id="i" x="65.806" y="100.386" width="58.844" height="58.844" filterUnits="userSpaceOnUse"><feOffset dx="3" dy="4" input="SourceAlpha"/><feGaussianBlur stdDeviation="3" result="j"/><feFlood flood-opacity="0.161"/><feComposite operator="in" in2="j"/><feComposite in="SourceGraphic"/></filter><filter id="k" x="79.68" y="0" width="141.873" height="142.078" filterUnits="userSpaceOnUse"><feOffset dy="3" input="SourceAlpha"/><feGaussianBlur stdDeviation="3" result="l"/><feFlood flood-opacity="0.161"/><feComposite operator="in" in2="l"/><feComposite in="SourceGraphic"/></filter></defs><g transform="translate(12 7.095)"><g transform="matrix(1, 0, 0, 1, -12, -7.1)" filter="url(#b)"><path d="M80.4,0A80.4,80.4,0,1,1,0,80.4,80.4,80.4,0,0,1,80.4,0Z" transform="translate(12 46.51)" fill="url(#a)"/></g><path d="M60.962,0A60.962,60.962,0,1,1,0,60.962,60.962,60.962,0,0,1,60.962,0Z" transform="translate(19.446 58.85)" fill="url(#d)"/><g transform="matrix(1, 0, 0, 1, -12, -7.1)" filter="url(#f)"><path d="M42.539,0A42.539,42.539,0,1,1,0,42.539,42.539,42.539,0,0,1,42.539,0Z" transform="translate(49.71 84.63)" fill="url(#e)"/></g><g transform="matrix(1, 0, 0, 1, -12, -7.1)" filter="url(#i)"><path d="M20.422,0A20.422,20.422,0,1,1,0,20.422,20.422,20.422,0,0,1,20.422,0Z" transform="translate(71.81 105.39)" fill="url(#h)"/></g><path d="M959.226,1495.341a42.466,42.466,0,0,1-24.065,32.936l-30.419-23.6,0-.007a20.368,20.368,0,0,0,24.972-32.185l.018-.023Z" transform="translate(-836.449 -1370.185)" opacity="0.11"/><path d="M821.552,1276.8a80.4,80.4,0,0,1-76.352,80.3l-40.876-31.715a60.964,60.964,0,0,0,76.35-95l39.3,30.492A80.755,80.755,0,0,1,821.552,1276.8Z" transform="translate(-660.888 -1156.877)" opacity="0.11"/><g transform="matrix(1, 0, 0, 1, -12, -7.1)" filter="url(#k)"><path d="M1088.857,0l.026,18.244,18.048-.108-27.747,27.748-14.063-.347-75.932,75.932a2.479,2.479,0,0,1-3.5,0l-.2-.2a2.479,2.479,0,0,1,0-3.5l75.97-75.97-.448-13.962Z" transform="translate(-895.59 7.21)" fill="#999" stroke="#fff" stroke-linecap="round" stroke-width="1"/></g><path d="M1099.047,242.133l18.048-.108-27.748,27.748-14.063-.347-75.932,75.932a2.479,2.479,0,0,1-3.5,0l-.1-.1,103.291-103.291v.165Z" transform="translate(-917.756 -223.858)" fill="#999" stroke="#fff" stroke-width="1" opacity="0.3"/></g></svg>